<svg preserveAspectRatio="none" overflow="visible" style="display: block;" width="15" height="15" viewBox="0 0 15 15" fill="none" xmlns="http://www.w3.org/2000/svg">
<g id="Container">
<path id="Icon" d="M4.5 9.75H6V7.5H8.625V9.375L11.25 6.75L8.625 4.125V6H5.25C5.0375 6 4.85937 6.07187 4.71562 6.21562C4.57187 6.35937 4.5 6.5375 4.5 6.75V9.75V9.75M7.5 15C7.3125 15 7.12813 14.9625 6.94688 14.8875C6.76563 14.8125 6.6 14.7 6.45 14.55L0.45 8.55C0.3 8.4 0.1875 8.23438 0.1125 8.05313C0.0375 7.87188 0 7.6875 0 7.5C0 7.3125 0.0375 7.12813 0.1125 6.94688C0.1875 6.76563 0.3 6.6 0.45 6.45L6.45 0.45C6.6 0.3 6.76563 0.1875 6.94688 0.1125C7.12813 0.0375 7.3125 0 7.5 0C7.6875 0 7.87188 0.0375 8.05313 0.1125C8.23438 0.1875 8.4 0.3 8.55 0.45L14.55 6.45C14.7 6.6 14.8125 6.76563 14.8875 6.94688C14.9625 7.12813 15 7.3125 15 7.5C15 7.6875 14.9625 7.87188 14.8875 8.05313C14.8125 8.23438 14.7 8.4 14.55 8.55L8.55 14.55C8.4 14.7 8.23438 14.8125 8.05313 14.8875C7.87188 14.9625 7.6875 15 7.5 15V15M4.5 10.5L7.5 13.5V13.5V13.5L13.5 7.5V7.5V7.5L7.5 1.5V1.5V1.5L1.5 7.5V7.5V7.5L4.5 10.5V10.5M7.5 7.5V7.5V7.5V7.5V7.5V7.5V7.5V7.5V7.5V7.5V7.5V7.5V7.5V7.5V7.5" fill="white"/>
</g>
</svg>
